Coordinates
version=1
nRows=11
nColumns=40
inDegrees=yes

Units are S.I. units (second, meters, Newtons, ...)
Angles are in degrees.

endheader
time	pelvis_tilt	pelvis_list	pelvis_rotation	pelvis_tx	pelvis_ty	pelvis_tz	hip_flexion_r	hip_adduction_r	hip_rotation_r	knee_angle_r	knee_angle_r_beta	ankle_angle_r	subtalar_angle_r	mtp_angle_r	hip_flexion_l	hip_adduction_l	hip_rotation_l	knee_angle_l	knee_angle_l_beta	ankle_angle_l	subtalar_angle_l	mtp_angle_l	lumbar_extension	lumbar_bending	lumbar_rotation	arm_flex_r	arm_add_r	arm_rot_r	elbow_flex_r	pro_sup_r	wrist_flex_r	wrist_dev_r	arm_flex_l	arm_add_l	arm_rot_l	elbow_flex_l	pro_sup_l	wrist_flex_l	wrist_dev_l
     44.56114286	     -6.23910988	     -6.83690650	      7.54449058	      1.08303802	      0.91457621	      0.47229221	     -1.73422233	      6.06682943	    -19.20690798	      8.07066839	      8.07066839	     17.49266311	      8.39951514	     -2.63620126	     34.84634055	     -7.08720591	     -5.26910675	     13.05716364	     13.05716364	      3.79658830	     -3.39742671	      5.96904659	     -8.41303744	      7.54747519	      4.48374131	     44.34003940	    -13.01811519	      2.69655328	    108.51200943	     43.93032530	      0.00000000	      0.00000000	    -20.15980633	     -8.25112109	     12.28947064	     31.27890480	     43.35583607	      0.00000000	      0.00000000
     44.57228571	     -6.20622264	     -6.81286045	      7.38682231	      1.08487207	      0.91313946	      0.47069186	     -2.26238631	      5.87786256	    -19.04076874	      8.67309103	      8.67309103	     18.25855538	      8.46064494	     -2.04811855	     34.40129216	     -6.94536172	     -5.62979611	     13.51986840	     13.51986840	      2.18096686	     -5.12784593	      4.08945425	     -8.12284941	      7.52840839	      4.52217016	     44.83119153	    -12.79262511	      2.64319038	    110.05557376	     43.98073903	      0.00000000	      0.00000000	    -20.83124616	     -8.47705898	     14.07823729	     31.71251412	     43.27363720	      0.00000000	      0.00000000
     44.58342857	     -6.12785438	     -6.69097867	      7.18980393	      1.08684700	      0.91190854	      0.46907721	     -2.89487594	      5.59683311	    -18.74197100	      9.17246482	      9.17246482	     18.75075396	      8.41362892	     -2.18028461	     34.06387282	     -6.85597854	     -6.18200373	     14.50517821	     14.50517821	      1.50572458	     -6.14151385	      4.09241443	     -7.86025190	      7.36371416	      4.41042735	     45.33528937	    -12.48593120	      2.67486771	    110.86105727	     43.96393780	      0.00000000	      0.00000000	    -21.30596322	     -8.36621316	     14.24486414	     31.59530352	     43.25872959	      0.00000000	      0.00000000
     44.59457143	     -6.07580489	     -6.58405935	      7.01119034	      1.08878187	      0.91068747	      0.46736768	     -3.35104264	      5.26791943	    -18.45239723	      9.95835316	      9.95835316	     19.26281681	      8.26958794	     -2.28204324	     33.84346096	     -6.76196363	     -6.29619433	     15.65032575	     15.65032575	      0.70568680	     -7.48059250	      3.91046846	     -7.59398190	      7.23475332	      4.20072586	     45.62722950	    -12.16516349	      2.75758933	    111.98377367	     43.93641046	      0.00000000	      0.00000000	    -21.69692977	     -8.27659024	     14.43336888	     31.56569686	     43.24455362	      0.00000000	      0.00000000
     44.60571429	     -6.05096992	     -6.46111506	      6.82172375	      1.09069300	      0.90957766	      0.46558439	     -3.64056649	      4.86791533	    -18.15602608	     11.00937808	     11.00937808	     19.81754779	      7.99960977	     -2.35886867	     33.69916507	     -6.64004364	     -6.05689508	     16.87388484	     16.87388484	     -0.14834186	     -9.12110060	      3.51645253	     -7.32305298	      7.05844210	      4.04200359	     45.70409292	    -11.97615595	      2.81350870	    113.29618430	     43.90601329	      0.00000000	      0.00000000	    -21.94979253	     -8.23716954	     14.65255182	     31.60339585	     43.23340899	      0.00000000	      0.00000000
     44.61685714	     -6.08276719	     -6.25468138	      6.56482136	      1.09255009	      0.90870559	      0.46375713	     -3.77544440	      4.32986667	    -17.74639623	     12.23653325	     12.23653325	     20.33093884	      7.62577679	     -2.38033921	     33.54901166	     -6.43480758	     -5.67248128	     17.99041961	     17.99041961	     -1.03133126	    -10.92026663	      2.87542866	     -6.99510758	      6.77810447	      4.07737555	     45.47929223	    -12.08280788	      2.73208330	    114.72566019	     43.88249752	      0.00000000	      0.00000000	    -22.06783318	     -8.23048960	     14.97785493	     31.62628630	     43.22380557	      0.00000000	      0.00000000
     44.62800000	     -5.96425024	     -5.99959009	      6.34688660	      1.09445250	      0.90831357	      0.46184340	     -4.03436850	      3.75608410	    -17.33186709	     13.51389172	     13.51389172	     20.66926496	      7.16301971	     -2.55177492	     33.33159868	     -6.25077382	     -5.36287421	     19.31288038	     19.31288038	     -1.40351539	    -12.23337159	      2.32171482	     -6.85401602	      6.45182968	      4.07148008	     45.13599294	    -12.19002130	      2.60486289	    115.70821030	     43.87119227	      0.00000000	      0.00000000	    -21.94669922	     -8.24817172	     15.25939272	     31.51051847	     43.21952027	      0.00000000	      0.00000000
     44.63914286	     -5.59266204	     -5.69225581	      6.16149634	      1.09648889	      0.90877217	      0.45986944	     -4.69094315	      3.19042289	    -17.00538923	     14.52263720	     14.52263720	     20.71465145	      6.86862410	     -2.72563656	     32.77728835	     -6.08214459	     -5.22852583	     20.56903721	     20.56903721	     -1.21257565	    -12.97436595	      2.01510796	     -6.98139708	      6.03446248	      3.81477004	     44.58142819	    -12.20652109	      2.62020909	    115.95134126	     43.86461510	      0.00000000	      0.00000000	    -21.76224060	     -8.22588523	     15.33197971	     31.45457917	     43.22001544	      0.00000000	      0.00000000
     44.65028571	     -5.71527614	     -5.48453647	      5.90478818	      1.09763427	      0.90844487	      0.45787050	     -3.93283716	      2.45548951	    -16.39866869	     17.09747769	     17.09747769	     20.85214855	      5.60462294	     -3.59749293	     32.97359627	     -5.91249725	     -4.81104787	     22.06956617	     22.06956617	     -0.98198270	    -14.15607722	      1.77727786	     -6.67777093	      5.82627388	      3.88156845	     44.05649434	    -12.41853253	      2.43889489	    117.16384571	     43.84696232	      0.00000000	      0.00000000	    -21.25497747	     -8.24451456	     15.55682542	     31.04290033	     43.23043334	      0.00000000	      0.00000000
     44.66142857	     -5.55885003	     -5.20323034	      5.66573637	      1.09901635	      0.90914157	      0.45581781	     -3.71983279	      1.81652793	    -15.65691419	     19.06640912	     19.06640912	     19.91802926	      3.92450307	     -5.99778386	     32.67397402	     -5.69809517	     -4.51454586	     23.33183426	     23.33183426	      0.04735121	    -14.80111500	      2.57744944	     -6.67499901	      5.50424282	      4.55152785	     42.69766063	    -13.27053946	      1.61311959	    118.83290401	     43.88056934	      0.00000000	      0.00000000	    -19.89608343	     -8.28832469	     16.35834273	     29.49162417	     43.27672786	      0.00000000	      0.00000000
     44.67257143	     -5.41509943	     -4.94824832	      5.40795109	      1.10003148	      0.91000280	      0.45371909	     -3.05969960	      1.02727636	    -15.25689600	     21.86172999	     21.86172999	     19.38751873	      2.75401545	     -6.97574781	     32.30873529	     -5.53735053	     -4.42607839	     24.39331255	     24.39331255	      0.86420858	    -15.24055670	      2.40215044	     -6.69019531	      5.20396699	      4.29969479	     41.92478776	    -13.37066598	      1.65433886	    118.89351818	     43.88667910	      0.00000000	      0.00000000	    -19.25130934	     -8.25460975	     16.45727085	     29.35102116	     43.30141927	      0.00000000	      0.00000000
